<?xml version="1.0" encoding="UTF-8" standalone="no"?>
<!-- Created with Inkscape (http://www.inkscape.org/) -->

<svg
   xmlns:ns0="http://www.iki.fi/pav/software/textext/"
   xmlns:dc="http://purl.org/dc/elements/1.1/"
   xmlns:cc="http://creativecommons.org/ns#"
   xmlns:rdf="http://www.w3.org/1999/02/22-rdf-syntax-ns#"
   xmlns:svg="http://www.w3.org/2000/svg"
   xmlns="http://www.w3.org/2000/svg"
   xmlns:sodipodi="http://sodipodi.sourceforge.net/DTD/sodipodi-0.dtd"
   xmlns:inkscape="http://www.inkscape.org/namespaces/inkscape"
   id="svg2"
   version="1.1"
   inkscape:version="0.92.3 (2405546, 2018-03-11)"
   xml:space="preserve"
   width="59.440815"
   height="53.674088"
   viewBox="0 0 59.440815 53.674088"
   sodipodi:docname="boundcollision.svg"><sodipodi:namedview
     pagecolor="#ffffff"
     bordercolor="#666666"
     borderopacity="1"
     objecttolerance="10"
     gridtolerance="10"
     guidetolerance="10"
     inkscape:pageopacity="0"
     inkscape:pageshadow="2"
     inkscape:window-width="1920"
     inkscape:window-height="1012"
     id="namedview4"
     showgrid="false"
     inkscape:zoom="4.6754313"
     inkscape:cx="66.77814"
     inkscape:cy="19.818141"
     inkscape:window-x="0"
     inkscape:window-y="32"
     inkscape:window-maximized="1"
     inkscape:current-layer="g10"
     inkscape:snap-intersection-paths="true"
     inkscape:object-paths="true"
     inkscape:snap-smooth-nodes="true"
     inkscape:object-nodes="true"
     inkscape:snap-midpoints="true"
     inkscape:snap-object-midpoints="true"
     fit-margin-top="0"
     fit-margin-left="0"
     fit-margin-right="0"
     fit-margin-bottom="0"
     inkscape:snap-nodes="false"
     inkscape:snap-others="false" /><metadata
     id="metadata8"><rdf:RDF><cc:Work
         rdf:about=""><dc:format>image/svg+xml</dc:format><dc:type
           rdf:resource="http://purl.org/dc/dcmitype/StillImage" /><dc:title></dc:title></cc:Work></rdf:RDF></metadata><defs
     id="defs6" /><g
     inkscape:groupmode="layer"
     id="layer1"
     inkscape:label="grid"
     style="display:inline"
     transform="translate(-95.886074,-95.84311)"><path
       style="display:inline;fill:#f2f2f2;fill-rule:evenodd;stroke:none;stroke-width:0.80000001px;stroke-linecap:butt;stroke-linejoin:miter;stroke-opacity:1"
       d="M 96.467161,96.536206 H 131.86302 V 131.93206 H 96.467161"
       id="path4244"
       inkscape:connector-curvature="0" /><g
       id="g4188"
       transform="translate(56.51492,-34.232445)"><path
         d="m 3.5,94.817153 h 180"
         style="fill:none;stroke:#b3b3b3;stroke-width:1;stroke-linecap:butt;stroke-linejoin:miter;stroke-miterlimit:10;stroke-dasharray:none;stroke-opacity:1"
         id="path48"
         inkscape:connector-curvature="0" /><path
         d="m 3.5,130.59121 h 180"
         style="fill:none;stroke:#b3b3b3;stroke-width:1;stroke-linecap:butt;stroke-linejoin:miter;stroke-miterlimit:10;stroke-dasharray:none;stroke-opacity:1"
         id="path50"
         inkscape:connector-curvature="0" /><path
         d="m 3.5,166.36527 h 180"
         style="fill:none;stroke:#b3b3b3;stroke-width:1;stroke-linecap:butt;stroke-linejoin:miter;stroke-miterlimit:10;stroke-dasharray:none;stroke-opacity:1"
         id="path52"
         inkscape:connector-curvature="0" /><path
         inkscape:connector-curvature="0"
         id="path4182"
         style="fill:none;stroke:#b3b3b3;stroke-width:1;stroke-linecap:butt;stroke-linejoin:miter;stroke-miterlimit:10;stroke-dasharray:none;stroke-opacity:1"
         d="m 3.5,59.043091 h 180" /><path
         d="m 3.5,23.269031 h 180"
         style="fill:none;stroke:#b3b3b3;stroke-width:1;stroke-linecap:butt;stroke-linejoin:miter;stroke-miterlimit:10;stroke-dasharray:none;stroke-opacity:1"
         id="path4184"
         inkscape:connector-curvature="0" /><path
         inkscape:connector-curvature="0"
         id="path4186"
         style="fill:none;stroke:#b3b3b3;stroke-width:1;stroke-linecap:butt;stroke-linejoin:miter;stroke-miterlimit:10;stroke-dasharray:none;stroke-opacity:1"
         d="M 3.5000009,202.13933 H 183.5" /></g><g
       transform="rotate(90,138.87368,123.84542)"
       id="g4196"><path
         inkscape:connector-curvature="0"
         id="path4198"
         style="fill:none;stroke:#b3b3b3;stroke-width:1;stroke-linecap:butt;stroke-linejoin:miter;stroke-miterlimit:10;stroke-dasharray:none;stroke-opacity:1"
         d="m 3.5,94.817153 h 180" /><path
         inkscape:connector-curvature="0"
         id="path4200"
         style="fill:none;stroke:#b3b3b3;stroke-width:1;stroke-linecap:butt;stroke-linejoin:miter;stroke-miterlimit:10;stroke-dasharray:none;stroke-opacity:1"
         d="m 3.5,130.59121 h 180" /><path
         inkscape:connector-curvature="0"
         id="path4202"
         style="fill:none;stroke:#b3b3b3;stroke-width:1;stroke-linecap:butt;stroke-linejoin:miter;stroke-miterlimit:10;stroke-dasharray:none;stroke-opacity:1"
         d="m 3.5,166.36527 h 180" /><path
         d="m 3.5,59.043091 h 180"
         style="fill:none;stroke:#b3b3b3;stroke-width:1;stroke-linecap:butt;stroke-linejoin:miter;stroke-miterlimit:10;stroke-dasharray:none;stroke-opacity:1"
         id="path4204"
         inkscape:connector-curvature="0" /><path
         inkscape:connector-curvature="0"
         id="path4206"
         style="fill:none;stroke:#b3b3b3;stroke-width:1;stroke-linecap:butt;stroke-linejoin:miter;stroke-miterlimit:10;stroke-dasharray:none;stroke-opacity:1"
         d="m 3.5,23.269031 h 180" /><path
         d="M 3.5000009,202.13933 H 183.5"
         style="fill:none;stroke:#b3b3b3;stroke-width:1;stroke-linecap:butt;stroke-linejoin:miter;stroke-miterlimit:10;stroke-dasharray:none;stroke-opacity:1"
         id="path4208"
         inkscape:connector-curvature="0" /></g><g
       ns0:preamble="/home/brittany/texmf/tex/latex/mystyle/mystyle.sty"
       ns0:text="$p$"
       word-spacing="normal"
       letter-spacing="normal"
       font-size-adjust="none"
       font-stretch="normal"
       font-weight="normal"
       font-variant="normal"
       font-style="normal"
       stroke-miterlimit="10.433"
       xml:space="preserve"
       transform="matrix(1.0125,0,0,-1.0125,29.576811,655.82325)"
       id="content"
       style="font-style:normal;font-variant:normal;font-weight:normal;font-stretch:normal;letter-spacing:normal;word-spacing:normal;text-anchor:start;fill:none;fill-opacity:1;fill-rule:evenodd;stroke:#000000;stroke-linecap:butt;stroke-linejoin:miter;stroke-miterlimit:10.43299961;stroke-dasharray:none;stroke-dashoffset:0;stroke-opacity:1"><path
         id="path3387"
         d="m 72.448,528.83 -0.007,-0.04 -0.007,-0.03 -0.007,-0.02 -0.007,-0.03 -0.007,-0.02 -0.006,-0.03 -0.007,-0.02 -0.008,-0.02 -0.007,-0.02 -0.008,-0.02 -0.009,-0.02 -0.009,-0.01 -0.01,-0.02 -0.011,-0.01 -0.012,-0.01 -0.012,-0.02 -0.014,-0.01 -0.015,-0.01 -0.016,-0.01 h -0.017 l -0.019,-0.01 -0.02,-0.01 h -0.021 l -0.024,-0.01 h -0.025 l -0.027,-0.01 H 72.102 72.087 72.072 72.056 72.04 72.023 72.006 71.988 71.969 71.95 71.931 71.91 c -0.119,0 -0.229,0 -0.229,-0.19 0,-0.08 0.05,-0.12 0.13,-0.12 0.269,0 0.558,0.03 0.837,0.03 0.328,0 0.667,-0.03 0.986,-0.03 0.05,0 0.179,0 0.179,0.2 0,0.11 -0.099,0.11 -0.239,0.11 -0.498,0 -0.498,0.07 -0.498,0.16 0,0.12 0.418,1.74 0.488,1.99 0.13,-0.29 0.409,-0.64 0.917,-0.64 l -0.01,0.22 c -0.658,0 -0.787,0.83 -0.787,0.89 0,0.02 0,0.04 0.03,0.16 l 0.488,1.95 c 0.069,0.27 0.338,0.55 0.518,0.7 0.348,0.31 0.637,0.37 0.807,0.37 0.398,0 0.637,-0.34 0.637,-0.93 0,-0.59 -0.328,-1.74 -0.508,-2.11 -0.338,-0.7 -0.817,-1.03 -1.185,-1.03 l 0.01,-0.22 c 1.155,0 2.401,1.46 2.401,2.92 0,0.94 -0.568,1.59 -1.325,1.59 -0.498,0 -0.977,-0.35 -1.305,-0.74 -0.1,0.53 -0.528,0.74 -0.897,0.74 -0.458,0 -0.648,-0.39 -0.737,-0.56 -0.18,-0.34 -0.309,-0.94 -0.309,-0.97 0,-0.1 0.1,-0.1 0.119,-0.1 0.1,0 0.11,0.01 0.17,0.23 0.169,0.71 0.368,1.18 0.727,1.18 0.169,0 0.309,-0.07 0.309,-0.45 0,-0.23 -0.03,-0.34 -0.07,-0.51 z"
         inkscape:connector-curvature="0"
         style="fill:#000000;stroke-width:0" /></g><g
       id="g3477"
       transform="matrix(1.0125,0,0,-1.0125,62.060115,665.50661)"
       xml:space="preserve"
       stroke-miterlimit="10.433"
       font-style="normal"
       font-variant="normal"
       font-weight="normal"
       font-stretch="normal"
       font-size-adjust="none"
       letter-spacing="normal"
       word-spacing="normal"
       ns0:text="$\\ell$"
       ns0:preamble="/home/brittany/texmf/tex/latex/mystyle/mystyle.sty"
       style="font-style:normal;font-variant:normal;font-weight:normal;font-stretch:normal;letter-spacing:normal;word-spacing:normal;text-anchor:start;fill:none;fill-opacity:1;fill-rule:evenodd;stroke:#000000;stroke-linecap:butt;stroke-linejoin:miter;stroke-miterlimit:10.43299961;stroke-dasharray:none;stroke-dashoffset:0;stroke-opacity:1"><path
         style="fill:#000000;stroke-width:0"
         inkscape:connector-curvature="0"
         d="m 72.159,531.03 -0.003,-0.01 -0.004,-0.01 H 72.147 L 72.143,531 h -0.004 l -0.004,-0.01 h -0.004 l -0.004,-0.01 -0.004,-0.01 H 72.122 72.12 l -0.001,-0.01 h -0.002 -0.001 -0.001 l -0.002,-0.01 h -0.001 v -0.01 H 72.111 72.11 v -0.01 0 0 c 0,-0.05 0.059,-0.13 0.119,-0.13 0.05,0 0.08,0.03 0.359,0.31 0.08,0.07 0.279,0.25 0.358,0.34 0.1,-0.79 0.389,-1.53 1.116,-1.53 0.399,0 0.748,0.23 0.957,0.38 0.139,0.1 0.607,0.49 0.607,0.59 0,0.03 -0.03,0.12 -0.119,0.12 -0.03,0 -0.04,-0.01 -0.13,-0.09 -0.637,-0.63 -1.006,-0.78 -1.295,-0.78 -0.448,0 -0.607,0.52 -0.607,1.29 0,0.06 0.019,0.52 0.049,0.57 0.02,0.03 0.02,0.05 0.219,0.25 0.807,0.81 2.222,2.49 2.222,4.04 0,0.17 0,0.77 -0.588,0.77 l 0.01,-0.22 c 0.339,0 0.339,-0.35 0.339,-0.51 0,-1.67 -1.674,-3.41 -2.152,-3.91 v 0 c 0.02,0.11 0.448,2.32 1.016,3.49 0.269,0.54 0.478,0.93 0.797,0.93 l -0.01,0.22 c -0.827,0 -1.564,-1.64 -1.663,-1.87 -0.479,-1.09 -0.788,-2.25 -0.788,-3.44 z"
         id="path3479" /></g><g
       style="font-style:normal;font-variant:normal;font-weight:normal;font-stretch:normal;letter-spacing:normal;word-spacing:normal;text-anchor:start;fill:none;fill-opacity:1;fill-rule:evenodd;stroke:#000000;stroke-linecap:butt;stroke-linejoin:miter;stroke-miterlimit:10.43299961;stroke-dasharray:none;stroke-dashoffset:0;stroke-opacity:1"
       ns0:preamble="/home/brittany/texmf/tex/latex/mystyle/mystyle.sty"
       ns0:text="$q$"
       word-spacing="normal"
       letter-spacing="normal"
       font-size-adjust="none"
       font-stretch="normal"
       font-weight="normal"
       font-variant="normal"
       font-style="normal"
       stroke-miterlimit="10.433"
       xml:space="preserve"
       transform="matrix(1.0125,0,0,-1.0125,77.8676,681.16854)"
       id="g3561"><path
         id="path3563"
         d="m 76.503,534.33 v 0.01 0 l -0.001,0.01 v 0 h -10e-4 l -0.001,0.01 h -0.001 l -0.002,0.01 h -0.001 -0.002 l -0.002,0.01 H 76.49 l -0.002,0.01 h -0.003 l -0.003,0.01 h -0.003 -0.003 l -0.003,0.01 h -0.004 -0.003 l -0.004,0.01 h -0.005 -0.004 -0.005 l -0.004,0.01 H 76.439 76.433 76.428 76.422 76.416 76.41 76.404 c -0.11,0 -0.509,-0.4 -0.678,-0.68 -0.219,0.53 -0.608,0.69 -0.927,0.69 v -0.22 c 0.648,0 0.788,-0.8 0.788,-0.87 0,-0.06 -0.548,-2.24 -0.578,-2.28 -0.15,-0.28 -0.708,-0.92 -1.266,-0.92 v 0 c -0.597,0 -0.637,0.77 -0.637,0.94 0,0.47 0.289,1.56 0.458,1.98 0.309,0.74 0.827,1.15 1.235,1.15 v 0.22 c -1.175,0 -2.401,-1.47 -2.401,-2.92 0,-0.97 0.588,-1.59 1.316,-1.59 0.428,0 0.817,0.24 1.175,0.6 -0.09,-0.35 -0.418,-1.69 -0.448,-1.79 -0.08,-0.27 -0.16,-0.31 -0.717,-0.32 -0.13,0 -0.23,0 -0.23,-0.2 0,-0.01 0,-0.11 0.13,-0.11 0.319,0 0.667,0.03 0.996,0.03 0.339,0 0.698,-0.03 1.026,-0.03 0.05,0 0.18,0 0.18,0.2 0,0.11 -0.1,0.11 -0.259,0.11 -0.479,0 -0.479,0.07 -0.479,0.16 0,0.07 0.02,0.13 0.04,0.21 z"
         inkscape:connector-curvature="0"
         style="fill:#000000;stroke-width:0" /></g></g><g
     inkscape:groupmode="layer"
     id="layer2"
     inkscape:label="direction"
     transform="translate(-95.886074,-95.84311)"
     style="display:inline"><path
       style="fill:none;fill-rule:evenodd;stroke:#ffaaaa;stroke-width:1px;stroke-linecap:butt;stroke-linejoin:miter;stroke-opacity:1"
       d="M 132.14327,132.07312 102.32909,109.71696"
       id="path4318"
       inkscape:connector-curvature="0"
       sodipodi:nodetypes="cc" /><path
       sodipodi:nodetypes="cc"
       inkscape:connector-curvature="0"
       id="path4214"
       d="M 132.14327,96.299062 102.32909,109.71696"
       style="fill:none;fill-rule:evenodd;stroke:#ffaaaa;stroke-width:1px;stroke-linecap:butt;stroke-linejoin:miter;stroke-opacity:1" /><path
       style="fill:none;fill-rule:evenodd;stroke:#ffaaaa;stroke-width:1;stroke-linecap:butt;stroke-linejoin:miter;stroke-miterlimit:4;stroke-dasharray:none;stroke-opacity:1"
       d="M 96.777511,96.676451 102.4318,109.72031"
       id="path4216"
       inkscape:connector-curvature="0"
       sodipodi:nodetypes="cc" /><path
       sodipodi:nodetypes="cc"
       inkscape:connector-curvature="0"
       id="path4224"
       d="m 96.369201,132.07312 5.959889,-22.35616"
       style="fill:none;fill-rule:evenodd;stroke:#ffaaaa;stroke-width:1px;stroke-linecap:butt;stroke-linejoin:miter;stroke-opacity:1" /></g><g
     id="g10"
     inkscape:groupmode="layer"
     inkscape:label="points"
     transform="matrix(1.25,0,0,-1.25,-95.886074,107.90689)"
     style="display:inline"><path
   d="m 84.143368,75.226428 c 0,-1.259 -1.0211,-2.28 -2.2801,-2.28 -1.259,0 -2.2801,1.021 -2.2801,2.28 0,1.259 1.0211,2.28 2.2801,2.28 1.259,0 2.2801,-1.021 2.2801,-2.28"
   style="fill:#ffd5d5;fill-opacity:1;fill-rule:evenodd;stroke:#ff5555;stroke-width:0.60000002;stroke-miterlimit:4;stroke-dasharray:none"
   id="path4210"
   inkscape:connector-curvature="0" /><path
   style="display:inline;fill:none;fill-rule:evenodd;stroke:#b3b3b3;stroke-width:0.80000001px;stroke-linecap:butt;stroke-linejoin:miter;stroke-opacity:1"
   d="M 105.81884,57.13507 117.73846,45.563994"
   id="path4248"
   inkscape:connector-curvature="0"
   sodipodi:nodetypes="cc" /><path
   inkscape:connector-curvature="0"
   id="path4212"
   style="fill:#00ffff;fill-opacity:1;fill-rule:evenodd;stroke:#0000ff;stroke-width:0.60000002;stroke-miterlimit:4;stroke-dasharray:none"
   d="m 119.61631,45.96624 c 0,-1.259 -1.0211,-2.28 -2.2801,-2.28 -1.259,0 -2.2801,1.021 -2.2801,2.28 0,1.259 1.0211,2.28 2.2801,2.28 1.259,0 2.2801,-1.021 2.2801,-2.28" /><path
   d="m 108.09894,57.135067 c 0,-1.259 -1.0211,-2.28 -2.2801,-2.28 -1.259,0 -2.2801,1.021 -2.2801,2.28 0,1.259 1.0211,2.28 2.2801,2.28 1.259,0 2.2801,-1.021 2.2801,-2.28"
   style="fill:#cccccc;fill-opacity:1;fill-rule:evenodd;stroke:#808080;stroke-width:0.60000002;stroke-miterlimit:4;stroke-dasharray:none"
   id="path3374"
   inkscape:connector-curvature="0" /><text
   transform="scale(1,-1)"
   id="text4170"
   y="-74.475029"
   x="63.622128"
   style="font-style:normal;font-weight:normal;line-height:0%;font-family:sans-serif;letter-spacing:0px;word-spacing:0px;fill:#000000;fill-opacity:1;stroke:none;stroke-width:1px;stroke-linecap:butt;stroke-linejoin:miter;stroke-opacity:1"
   xml:space="preserve"><tspan
     y="-74.475029"
     x="63.622128"
     id="tspan4172"
     sodipodi:role="line"
     style="font-size:32px;line-height:1.25"> </tspan></text>

</g></svg>