<?xml version="1.0" encoding="UTF-8" standalone="no"?>
<!-- Created with Inkscape (http://www.inkscape.org/) -->

<svg
   xmlns:dc="http://purl.org/dc/elements/1.1/"
   xmlns:cc="http://creativecommons.org/ns#"
   xmlns:rdf="http://www.w3.org/1999/02/22-rdf-syntax-ns#"
   xmlns:svg="http://www.w3.org/2000/svg"
   xmlns="http://www.w3.org/2000/svg"
   xmlns:xlink="http://www.w3.org/1999/xlink"
   xmlns:sodipodi="http://sodipodi.sourceforge.net/DTD/sodipodi-0.dtd"
   xmlns:inkscape="http://www.inkscape.org/namespaces/inkscape"
   id="svg2"
   version="1.1"
   inkscape:version="0.48.4 r9939"
   width="3130.4177"
   height="1815.8922"
   sodipodi:docname="pferd-weiss.svg">
  <metadata
     id="metadata8">
    <rdf:RDF>
      <cc:Work
         rdf:about="">
        <dc:format>image/svg+xml</dc:format>
        <dc:type
           rdf:resource="http://purl.org/dc/dcmitype/StillImage" />
        <dc:title></dc:title>
      </cc:Work>
    </rdf:RDF>
  </metadata>
  <defs
     id="defs6" />
  <sodipodi:namedview
     pagecolor="#ffffff"
     bordercolor="#666666"
     borderopacity="1"
     objecttolerance="10"
     gridtolerance="10"
     guidetolerance="10"
     inkscape:pageopacity="0"
     inkscape:pageshadow="2"
     inkscape:window-width="1366"
     inkscape:window-height="718"
     id="namedview4"
     showgrid="false"
     inkscape:zoom="0.18541911"
     inkscape:cx="1927.3763"
     inkscape:cy="1146.3201"
     inkscape:window-x="0"
     inkscape:window-y="0"
     inkscape:window-maximized="1"
     inkscape:current-layer="layer1"
     fit-margin-top="0"
     fit-margin-left="0"
     fit-margin-right="0"
     fit-margin-bottom="0" />
  <g
     id="g3011"
     transform="translate(850.90209,453.16426)">
    <g
       id="g3099">
      <path
         style="fill:#000000;stroke:#000000;stroke-width:0.19855945;stroke-linecap:round;stroke-linejoin:round;stroke-miterlimit:4;stroke-opacity:1;stroke-dasharray:none"
         d="m 281.96257,177.98111 c 3.35588,-6.9736 6.99976,-10.14846 10.79768,-11.29198 l 0.49835,3.37074 c 2.91549,0.58072 3.75004,1.68925 4.98354,2.69659 -1.95669,-0.24363 -4.27889,-0.8581 -4.98354,0.16854 -0.9828,9.52865 -6.23211,8.8289 -11.29603,5.05611 z"
         id="path3784"
         inkscape:connector-curvature="0"
         sodipodi:nodetypes="cccccc" />
      <path
         style="fill:#000000;stroke:#000000;stroke-width:0.2;stroke-linecap:round;stroke-linejoin:round;stroke-miterlimit:4;stroke-opacity:1;stroke-dasharray:none"
         d="m 280.42529,182.34263 c 4.49745,-9.96236 10.49888,-15.49317 16.22046,-13.46252 -0.14237,-8.35877 -5.4667,-22.9852 -9.47897,-35.07617 2.24569,11.47384 6.18103,29.13306 4.71904,30.67376 -5.17138,1.08592 -10.9851,10.31109 -11.46053,17.86493 z"
         id="path2987"
         inkscape:connector-curvature="0"
         sodipodi:nodetypes="ccccc" />
      <path
         style="fill:#000000;stroke:#000000;stroke-width:0.19721125;stroke-linecap:round;stroke-linejoin:round;stroke-miterlimit:4;stroke-opacity:1;stroke-dasharray:none"
         d="m 287.34462,129.08747 c 5.65016,-6.5162 31.88061,-21.20119 19.88944,-64.299724 -18.74554,13.317781 -31.16425,28.048871 -42.83879,42.592704 12.27517,-8.548213 23.56042,-20.303944 36.95435,-25.227088 0.76059,25.361678 -6.91853,35.113068 -14.005,46.934108 z"
         id="path3757"
         inkscape:connector-curvature="0"
         sodipodi:nodetypes="ccccc" />
      <path
         style="fill:#000000;stroke:#000000;stroke-width:0.20018944;stroke-linecap:round;stroke-linejoin:round;stroke-miterlimit:4;stroke-opacity:1;stroke-dasharray:none"
         d="m 196.77578,59.214301 c -5.42364,11.721377 -6.73589,20.953184 -6.17535,28.698625 2.83667,-1.179817 5.93938,-2.568209 9.09062,-4.044773 0.19369,-1.978629 0.0784,-7.130868 0.41421,-9.311881 1.81149,0.962488 3.90071,5.184698 5.6044,6.390657 2.59276,-1.257751 5.07129,-2.485935 7.58597,-3.723759 -2.43347,-4.87351 -8.10647,-11.014373 -16.51985,-18.008869 z"
         id="path3757-1"
         inkscape:connector-curvature="0"
         sodipodi:nodetypes="ccccccc" />
      <path
         style="fill:#000000;stroke:#000000;stroke-width:0.09858921;stroke-linecap:round;stroke-linejoin:round;stroke-miterlimit:4;stroke-opacity:1;stroke-dasharray:none"
         d="m 258.0303,40.125472 c 23.1602,18.083516 20.43066,38.086206 15.39863,50.100559 C 283.59228,79.899833 283.6012,52.305156 258.0303,40.125472 z"
         id="path3780"
         inkscape:connector-curvature="0"
         sodipodi:nodetypes="ccc" />
      <path
         style="fill:#000000;stroke:#000000;stroke-width:0.1;stroke-linecap:round;stroke-linejoin:round;stroke-miterlimit:4;stroke-opacity:1;stroke-dasharray:none"
         d="m 200.65625,166.84375 c -1.37902,0.0131 -2.92156,0.20121 -4.65625,0.53125 1.60074,0.60924 3.38017,1.15754 4.46875,1.9375 l -0.15625,0.9375 c -2.84605,0.55913 -3.67088,1.62387 -4.875,2.59375 1.91009,-0.23457 4.18713,-0.83221 4.875,0.15625 0.20324,1.94355 0.62049,3.40614 1.15625,4.53125 0.076,0.15953 0.13705,0.32417 0.21875,0.46875 0.0105,0.0207 0.0206,0.0421 0.0312,0.0625 0.0189,0.0327 0.0433,0.0618 0.0625,0.0937 0.15443,0.27883 0.3454,0.53635 0.53125,0.75 0.125,0.14369 0.23786,0.2587 0.375,0.375 2.10189,1.96491 5.23157,1.01613 8.34375,-1.1875 l 2.6875,3.09375 c -1.84454,-7.25547 -3.40937,-14.43572 -13.0625,-14.34375 z"
         id="path3786"
         inkscape:connector-curvature="0" />
      <path
         style="fill:#000000;fill-opacity:1;stroke:#000000;stroke-width:0.09898778;stroke-miterlimit:4;stroke-opacity:1"
         d="m 225.6875,259.41948 c -0.48081,0.0388 -0.92716,0.28685 -1.1875,0.81369 -2.34058,5.85801 -3.71809,12.1483 -3.0625,19.6191 -0.001,0.35014 0.0177,0.69623 0.0625,1.05479 0.0298,0.23886 0.076,0.46223 0.125,0.69315 0.80156,3.77628 4.09392,6.45821 7.65625,6.0575 3.78017,-0.42521 6.42381,-4.14258 5.90625,-8.28763 -0.18038,-1.44463 -0.71202,-2.75499 -1.5,-3.82738 -2.73391,-3.75593 -6.75704,-7.22847 -6.34375,-14.97802 -0.0126,-0.6963 -0.85489,-1.20984 -1.65625,-1.1452 z"
         id="path3788"
         inkscape:connector-curvature="0"
         sodipodi:nodetypes="sccccssccs" />
      <path
         style="fill:#000000;fill-opacity:1;stroke:#000000;stroke-width:0.09898778;stroke-miterlimit:4;stroke-opacity:1"
         d="m 263.72392,258.64705 c 0.48081,0.0388 0.92716,0.28685 1.1875,0.81369 2.34058,5.85801 3.71809,12.1483 3.0625,19.6191 10e-4,0.35014 -0.0177,0.69623 -0.0625,1.05479 -0.0298,0.23886 -0.076,0.46223 -0.125,0.69315 -0.80156,3.77628 -4.09392,6.45821 -7.65625,6.0575 -3.78017,-0.42521 -6.42381,-4.14258 -5.90625,-8.28763 0.18038,-1.44463 0.71202,-2.75499 1.5,-3.82738 2.73391,-3.75593 6.75704,-7.22847 6.34375,-14.97802 0.0126,-0.6963 0.85489,-1.20984 1.65625,-1.1452 z"
         id="path3788-7"
         inkscape:connector-curvature="0"
         sodipodi:nodetypes="sccccssccs" />
      <path
         style="fill:#000000;stroke:#000000;stroke-width:0.1;stroke-linecap:round;stroke-linejoin:round;stroke-miterlimit:4;stroke-opacity:1;stroke-dasharray:none"
         d="m 181.683,160.95887 c -2.6866,17.83904 1.85788,27.42078 8.08978,35.22425 -4.16719,-63.62636 45.28361,-38.20556 68.93167,-75.8417 0.95393,6.55002 -1.94459,11.34196 -3.03366,15.67396 9.46985,-12.26424 4.50062,-16.70731 4.04489,-23.5952 -15.73222,39.99566 -71.20957,15.26073 -73.81925,72.47096 -3.14551,-5.20343 -3.4403,-13.16997 -4.21343,-23.93227 z"
         id="path3812"
         inkscape:connector-curvature="0"
         sodipodi:nodetypes="ccccccc" />
      <path
         style="fill:#000000;stroke:#000000;stroke-width:0.09985881;stroke-linecap:round;stroke-linejoin:round;stroke-miterlimit:4;stroke-opacity:1;stroke-dasharray:none"
         d="M 264.15844,59.596285 C 252.06872,54.69657 232.35211,49.063442 226.17653,30.535189 c -2.75431,41.003729 58.51448,32.932103 35.29293,72.120911 24.32428,-33.885006 -18.47818,-36.53988 -28.73852,-56.4277 10.18113,8.527917 23.4273,11.140745 31.4275,13.367885 z"
         id="path3814"
         inkscape:connector-curvature="0"
         sodipodi:nodetypes="ccccc" />
      <path
         style="opacity:0.98999999;fill:#000000;stroke:#000000;stroke-width:0.1;stroke-linecap:round;stroke-linejoin:round;stroke-miterlimit:4;stroke-opacity:1;stroke-dasharray:none"
         d="m 172.91907,109.55505 c -19.85647,-0.48666 -31.56053,-8.01458 -41.29159,-19.718841 66.63968,28.906761 111.7656,-60.447818 126.40283,14.157121 -16.01103,-62.134014 -56.46262,9.1536 -113.25694,-5.898803 10.1057,8.195253 21.84195,9.644093 28.1457,11.460523 z"
         id="path3816"
         inkscape:connector-curvature="0"
         sodipodi:nodetypes="ccccc" />
      <path
         style="fill:#000000;stroke:#000000;stroke-width:0.1;stroke-linecap:round;stroke-linejoin:round;stroke-miterlimit:4;stroke-opacity:1;stroke-dasharray:none"
         d="m 291.90625,220.64447 c -3.09312,24.68561 -2.68849,45.63921 -5.40625,58.79447 3.19747,18.11059 2.24064,62.59339 0.3125,98.8112 2.73953,-18.38252 4.98145,-36.99805 5.65625,-73.98927 15.79932,17.59096 19.87865,61.77359 22.03125,98.54855 0.23539,-32.24185 -1.70146,-83.27475 -21.90625,-106.06782 0.22949,-19.72017 0.0556,-44.27992 -0.6875,-76.09713 z"
         id="path3818"
         inkscape:connector-curvature="0" />
      <path
         style="fill:#000000;stroke:#000000;stroke-width:0.1;stroke-linecap:round;stroke-linejoin:round;stroke-miterlimit:4;stroke-opacity:1;stroke-dasharray:none"
         d="m 154.26866,161.46448 c -19.17711,5.76659 -34.28282,3.43005 -47.84781,-11.29199 55.95474,11.28717 74.88353,-36.77273 131.46315,-29.9996 -60.75642,3.79172 -69.00759,39.45422 -115.75994,37.41523 8.70206,6.38522 19.44835,5.44328 32.1446,3.87636 z"
         id="path3843"
         inkscape:connector-curvature="0"
         sodipodi:nodetypes="ccccc" />
      <path
         style="fill:#000000;stroke:#000000;stroke-width:0.1;stroke-linecap:round;stroke-linejoin:round;stroke-miterlimit:4;stroke-opacity:1;stroke-dasharray:none"
         d="m 141.72664,139.04904 c -24.48687,-4.50092 -31.99959,-19.79081 -37.38911,-38.59499 28.67023,46.63742 44.44321,6.81902 100.30187,13.82004 -46.32366,-0.35796 -67.12172,27.00879 -90.46679,4.21343 7.65873,11.82649 17.6861,16.67645 27.55403,20.56152 z"
         id="path3845"
         inkscape:connector-curvature="0"
         sodipodi:nodetypes="ccccc" />
      <path
         style="fill:#000000;stroke:#000000;stroke-width:0.10200712;stroke-linecap:round;stroke-linejoin:round;stroke-miterlimit:4;stroke-opacity:1;stroke-dasharray:none"
         d="M 112.86705,198.09852 C 99.701467,182.31226 85.906313,172.67614 66.379289,174.16543 c 51.512601,-22.20628 64.243301,47.9831 109.620401,22.94104 -31.27276,26.99912 -59.94454,-18.48337 -84.66508,-21.82499 7.112241,4.9374 13.63079,9.53982 21.53244,22.81704 z"
         id="path3847"
         inkscape:connector-curvature="0"
         sodipodi:nodetypes="ccccc" />
      <path
         style="fill:#000000;stroke:#000000;stroke-width:0.1;stroke-linecap:round;stroke-linejoin:round;stroke-miterlimit:4;stroke-opacity:1;stroke-dasharray:none"
         d="m 288.19844,187.58773 c 0.32009,51.63605 -19.36653,44.91691 -15.19078,71.12266 0.74584,-30.73022 21.44759,-18.78364 15.19078,-71.12266 z"
         id="path3849"
         inkscape:connector-curvature="0"
         sodipodi:nodetypes="ccc" />
      <path
         style="fill:#000000;stroke:#000000;stroke-width:0.1;stroke-linecap:round;stroke-linejoin:round;stroke-miterlimit:4;stroke-opacity:1;stroke-dasharray:none"
         d="m 267.63692,178.23559 c -5.53881,22.36494 -7.33329,41.93578 -6.57295,49.31834 0.98292,-9.02031 1.7718,-18.56027 4.21343,-25.51241 -0.96634,-1.78779 1.28224,-14.20202 2.35952,-23.80593 z"
         id="path3851"
         inkscape:connector-curvature="0"
         sodipodi:nodetypes="cccc" />
      <path
         style="fill:#000000;stroke:#000000;stroke-width:0.1;stroke-linecap:round;stroke-linejoin:round;stroke-miterlimit:4;stroke-opacity:1;stroke-dasharray:none"
         d="m 228.18955,178.85237 c 5.29959,21.65546 6.81728,40.73841 5.92075,47.99951 -0.85878,-8.78864 -1.51084,-18.09451 -3.89402,-24.79477 1.01661,-1.79243 -1.08094,-13.84883 -2.02673,-23.20474 z"
         id="path3851-0"
         inkscape:connector-curvature="0"
         sodipodi:nodetypes="cccc" />
      <path
         style="fill:#000000;stroke:#000000;stroke-width:0.1;stroke-linecap:round;stroke-linejoin:round;stroke-miterlimit:4;stroke-opacity:1;stroke-dasharray:none"
         d="m 203.31087,185.46923 c -2.74026,19.54755 -1.994,38.63463 6.99586,44.57097 -7.60104,-11.45445 -6.39581,-26.92295 -6.99586,-44.57097 z"
         id="path3871"
         inkscape:connector-curvature="0"
         sodipodi:nodetypes="ccc" />
      <path
         style="fill:#000000;stroke:#000000;stroke-width:0.09705058;stroke-linecap:round;stroke-linejoin:round;stroke-miterlimit:4;stroke-opacity:1;stroke-dasharray:none"
         d="m 292.09656,284.81294 c 97.94542,15.32057 73.43597,72.81646 96.15977,132.33326 -12.93212,-41.9639 5.16819,-132.20713 -96.15977,-132.33326 z"
         id="path3873"
         inkscape:connector-curvature="0"
         sodipodi:nodetypes="ccc" />
      <path
         style="fill:#000000;stroke:#000000;stroke-width:0.09968074;stroke-linecap:round;stroke-linejoin:round;stroke-miterlimit:4;stroke-opacity:1;stroke-dasharray:none"
         d="m 72.30744,267.50324 c 20.666713,-81.94718 85.07363,-11.0955 122.68497,-66.98506 -39.27292,41.41108 -114.813683,-19.9974 -122.68497,66.98506 z"
         id="path3875"
         inkscape:connector-curvature="0"
         sodipodi:nodetypes="ccc" />
      <path
         style="fill:#000000;stroke:#000000;stroke-width:0.1;stroke-linecap:round;stroke-linejoin:round;stroke-miterlimit:4;stroke-opacity:1;stroke-dasharray:none"
         d="m 219.19256,289.08951 c 2.97355,30.52913 49.16952,31.54026 52.16297,-1.19173 -7.09932,29.10376 -44.24461,29.31506 -52.16297,1.19173 z"
         id="path3877"
         inkscape:connector-curvature="0"
         sodipodi:nodetypes="ccc" />
      <path
         style="fill:#000000;stroke:#000000;stroke-width:0.1;stroke-linecap:round;stroke-linejoin:round;stroke-miterlimit:4;stroke-opacity:1;stroke-dasharray:none"
         d="m 217.96875,276.2447 c 1.46673,-13.83074 2.18425,-27.38121 -5.72034,-40.87659 6.27973,18.42765 4.93627,33.17302 5.72034,40.87659 z"
         id="path3879"
         inkscape:connector-curvature="0"
         sodipodi:nodetypes="ccc" />
      <path
         style="fill:#000000;stroke:#000000;stroke-width:0.1;stroke-linecap:round;stroke-linejoin:round;stroke-miterlimit:4;stroke-opacity:1;stroke-dasharray:none"
         d="m 171.40625,229.0625 c -37.76398,35.62066 -107.694839,-4.55659 -81.75,106.4375 -1.708226,-72.5077 39.96833,-45.61378 52.09375,-58.09375 -18.51424,6.08829 -40.92109,-6.71273 -53.28125,24.03125 3.650452,-67.94983 47.86616,-33.34998 82.9375,-72.375 z m -82.0625,102.96875 c 0.134182,1.12271 0.233345,2.19668 0.28125,3.21875 -0.102853,-1.09441 -0.190464,-2.15528 -0.28125,-3.21875 z"
         id="path3881"
         inkscape:connector-curvature="0"
         sodipodi:nodetypes="cccccccc" />
      <path
         style="fill:#000000;stroke:#000000;stroke-width:0.1;stroke-linecap:round;stroke-linejoin:round;stroke-miterlimit:4;stroke-opacity:1;stroke-dasharray:none"
         d="m 200.21186,222.54426 c 1.72395,39.39677 -9.71648,70.02248 -18.5911,126.31728 5.38572,-66.78742 10.28361,-53.20639 18.5911,-126.31728 z"
         id="path3886"
         inkscape:connector-curvature="0"
         sodipodi:nodetypes="ccc" />
      <path
         style="fill:#000000;stroke:#000000;stroke-width:0.04929576;stroke-linecap:round;stroke-linejoin:round;stroke-miterlimit:4;stroke-opacity:1;stroke-dasharray:none"
         d="m 229.94607,303.44249 c 9.58071,7.80329 27.17148,4.74011 30.96539,-0.48784 -11.44441,4.97165 -18.97484,4.6479 -30.96539,0.48784 z"
         id="path3877-9"
         inkscape:connector-curvature="0"
         sodipodi:nodetypes="ccc" />
      <path
         style="fill:#000000;stroke:#000000;stroke-width:0.1;stroke-linecap:round;stroke-linejoin:round;stroke-miterlimit:4;stroke-opacity:1;stroke-dasharray:none"
         d="m 183.76589,286.49364 c -6.96052,39.20009 -37.07201,31.79803 -31.46186,65.30721 -8.76192,-37.62349 14.61142,-23.83192 31.46186,-65.30721 z"
         id="path3906"
         inkscape:connector-curvature="0"
         sodipodi:nodetypes="ccc" />
      <path
         style="fill:#000000;stroke:#000000;stroke-width:0.1;stroke-linecap:round;stroke-linejoin:round;stroke-miterlimit:4;stroke-opacity:1;stroke-dasharray:none"
         d="m 184.71875,246.9375 c -0.4339,1.87352 -0.93946,3.67912 -1.5,5.4375 0.73264,-1.79919 1.24897,-3.60581 1.5,-5.4375 z m -1.53125,5.5 C 168.20372,288.96282 61.234598,319.80276 151.125,384.78125 l 0.6875,0.625 c -9.20944,-12.59608 -24.33485,-34.29671 -8.09375,-54.09375 -10.39353,7.8611 -10.6299,19.42896 -8.15625,33.6875 -38.248988,-57.22179 30.99891,-60.58626 47.625,-112.5625 z"
         id="path3908"
         inkscape:connector-curvature="0" />
    </g>
  </g>
  <g
     id="g3041"
     transform="translate(423.78345,533.249)">
    <path
       style="fill:#000000;stroke:#000000;stroke-width:0.19855945;stroke-linecap:round;stroke-linejoin:round;stroke-miterlimit:4;stroke-opacity:1;stroke-dasharray:none"
       d="m 281.96257,177.98111 c 3.35588,-6.9736 6.99976,-10.14846 10.79768,-11.29198 l 0.49835,3.37074 c 2.91549,0.58072 3.75004,1.68925 4.98354,2.69659 -1.95669,-0.24363 -4.27889,-0.8581 -4.98354,0.16854 -0.9828,9.52865 -6.23211,8.8289 -11.29603,5.05611 z"
       id="path3043"
       inkscape:connector-curvature="0"
       sodipodi:nodetypes="cccccc" />
    <path
       style="fill:#000000;stroke:#000000;stroke-width:0.2;stroke-linecap:round;stroke-linejoin:round;stroke-miterlimit:4;stroke-opacity:1;stroke-dasharray:none"
       d="m 280.42529,182.34263 c 4.49745,-9.96236 10.49888,-15.49317 16.22046,-13.46252 -0.14237,-8.35877 -5.4667,-22.9852 -9.47897,-35.07617 2.24569,11.47384 6.18103,29.13306 4.71904,30.67376 -5.17138,1.08592 -10.9851,10.31109 -11.46053,17.86493 z"
       id="path3045"
       inkscape:connector-curvature="0"
       sodipodi:nodetypes="ccccc" />
    <path
       style="fill:#000000;stroke:#000000;stroke-width:0.19721125;stroke-linecap:round;stroke-linejoin:round;stroke-miterlimit:4;stroke-opacity:1;stroke-dasharray:none"
       d="m 287.34462,129.08747 c 5.65016,-6.5162 31.88061,-21.20119 19.88944,-64.299724 -18.74554,13.317781 -31.16425,28.048871 -42.83879,42.592704 12.27517,-8.548213 23.56042,-20.303944 36.95435,-25.227088 0.76059,25.361678 -6.91853,35.113068 -14.005,46.934108 z"
       id="path3047"
       inkscape:connector-curvature="0"
       sodipodi:nodetypes="ccccc" />
    <path
       style="fill:#000000;stroke:#000000;stroke-width:0.20018944;stroke-linecap:round;stroke-linejoin:round;stroke-miterlimit:4;stroke-opacity:1;stroke-dasharray:none"
       d="m 196.77578,59.214301 c -5.42364,11.721377 -6.73589,20.953184 -6.17535,28.698625 2.83667,-1.179817 5.93938,-2.568209 9.09062,-4.044773 0.19369,-1.978629 0.0784,-7.130868 0.41421,-9.311881 1.81149,0.962488 3.90071,5.184698 5.6044,6.390657 2.59276,-1.257751 5.07129,-2.485935 7.58597,-3.723759 -2.43347,-4.87351 -8.10647,-11.014373 -16.51985,-18.008869 z"
       id="path3049"
       inkscape:connector-curvature="0"
       sodipodi:nodetypes="ccccccc" />
    <path
       style="fill:#000000;stroke:#000000;stroke-width:0.09858921;stroke-linecap:round;stroke-linejoin:round;stroke-miterlimit:4;stroke-opacity:1;stroke-dasharray:none"
       d="m 258.0303,40.125472 c 23.1602,18.083516 20.43066,38.086206 15.39863,50.100559 C 283.59228,79.899833 283.6012,52.305156 258.0303,40.125472 z"
       id="path3051"
       inkscape:connector-curvature="0"
       sodipodi:nodetypes="ccc" />
    <path
       style="fill:#000000;stroke:#000000;stroke-width:0.1;stroke-linecap:round;stroke-linejoin:round;stroke-miterlimit:4;stroke-opacity:1;stroke-dasharray:none"
       d="m 200.65625,166.84375 c -1.37902,0.0131 -2.92156,0.20121 -4.65625,0.53125 1.60074,0.60924 3.38017,1.15754 4.46875,1.9375 l -0.15625,0.9375 c -2.84605,0.55913 -3.67088,1.62387 -4.875,2.59375 1.91009,-0.23457 4.18713,-0.83221 4.875,0.15625 0.20324,1.94355 0.62049,3.40614 1.15625,4.53125 0.076,0.15953 0.13705,0.32417 0.21875,0.46875 0.0105,0.0207 0.0206,0.0421 0.0312,0.0625 0.0189,0.0327 0.0433,0.0618 0.0625,0.0937 0.15443,0.27883 0.3454,0.53635 0.53125,0.75 0.125,0.14369 0.23786,0.2587 0.375,0.375 2.10189,1.96491 5.23157,1.01613 8.34375,-1.1875 l 2.6875,3.09375 c -1.84454,-7.25547 -3.40937,-14.43572 -13.0625,-14.34375 z"
       id="path3053"
       inkscape:connector-curvature="0" />
    <path
       style="fill:#000000;fill-opacity:1;stroke:#000000;stroke-width:0.09898778;stroke-miterlimit:4;stroke-opacity:1"
       d="m 225.6875,259.41948 c -0.48081,0.0388 -0.92716,0.28685 -1.1875,0.81369 -2.34058,5.85801 -3.71809,12.1483 -3.0625,19.6191 -0.001,0.35014 0.0177,0.69623 0.0625,1.05479 0.0298,0.23886 0.076,0.46223 0.125,0.69315 0.80156,3.77628 4.09392,6.45821 7.65625,6.0575 3.78017,-0.42521 6.42381,-4.14258 5.90625,-8.28763 -0.18038,-1.44463 -0.71202,-2.75499 -1.5,-3.82738 -2.73391,-3.75593 -6.75704,-7.22847 -6.34375,-14.97802 -0.0126,-0.6963 -0.85489,-1.20984 -1.65625,-1.1452 z"
       id="path3055"
       inkscape:connector-curvature="0"
       sodipodi:nodetypes="sccccssccs" />
    <path
       style="fill:#000000;fill-opacity:1;stroke:#000000;stroke-width:0.09898778;stroke-miterlimit:4;stroke-opacity:1"
       d="m 263.72392,258.64705 c 0.48081,0.0388 0.92716,0.28685 1.1875,0.81369 2.34058,5.85801 3.71809,12.1483 3.0625,19.6191 10e-4,0.35014 -0.0177,0.69623 -0.0625,1.05479 -0.0298,0.23886 -0.076,0.46223 -0.125,0.69315 -0.80156,3.77628 -4.09392,6.45821 -7.65625,6.0575 -3.78017,-0.42521 -6.42381,-4.14258 -5.90625,-8.28763 0.18038,-1.44463 0.71202,-2.75499 1.5,-3.82738 2.73391,-3.75593 6.75704,-7.22847 6.34375,-14.97802 0.0126,-0.6963 0.85489,-1.20984 1.65625,-1.1452 z"
       id="path3057"
       inkscape:connector-curvature="0"
       sodipodi:nodetypes="sccccssccs" />
    <path
       style="fill:#000000;stroke:#000000;stroke-width:0.1;stroke-linecap:round;stroke-linejoin:round;stroke-miterlimit:4;stroke-opacity:1;stroke-dasharray:none"
       d="m 181.683,160.95887 c -2.6866,17.83904 1.85788,27.42078 8.08978,35.22425 -4.16719,-63.62636 45.28361,-38.20556 68.93167,-75.8417 0.95393,6.55002 -1.94459,11.34196 -3.03366,15.67396 9.46985,-12.26424 4.50062,-16.70731 4.04489,-23.5952 -15.73222,39.99566 -71.20957,15.26073 -73.81925,72.47096 -3.14551,-5.20343 -3.4403,-13.16997 -4.21343,-23.93227 z"
       id="path3059"
       inkscape:connector-curvature="0"
       sodipodi:nodetypes="ccccccc" />
    <path
       style="fill:#000000;stroke:#000000;stroke-width:0.09985881;stroke-linecap:round;stroke-linejoin:round;stroke-miterlimit:4;stroke-opacity:1;stroke-dasharray:none"
       d="M 264.15844,59.596285 C 252.06872,54.69657 232.35211,49.063442 226.17653,30.535189 c -2.75431,41.003729 58.51448,32.932103 35.29293,72.120911 24.32428,-33.885006 -18.47818,-36.53988 -28.73852,-56.4277 10.18113,8.527917 23.4273,11.140745 31.4275,13.367885 z"
       id="path3061"
       inkscape:connector-curvature="0"
       sodipodi:nodetypes="ccccc" />
    <path
       style="opacity:0.98999999;fill:#000000;stroke:#000000;stroke-width:0.1;stroke-linecap:round;stroke-linejoin:round;stroke-miterlimit:4;stroke-opacity:1;stroke-dasharray:none"
       d="m 172.91907,109.55505 c -19.85647,-0.48666 -31.56053,-8.01458 -41.29159,-19.718841 66.63968,28.906761 111.7656,-60.447818 126.40283,14.157121 -16.01103,-62.134014 -56.46262,9.1536 -113.25694,-5.898803 10.1057,8.195253 21.84195,9.644093 28.1457,11.460523 z"
       id="path3063"
       inkscape:connector-curvature="0"
       sodipodi:nodetypes="ccccc" />
    <path
       style="fill:#000000;stroke:#000000;stroke-width:0.1;stroke-linecap:round;stroke-linejoin:round;stroke-miterlimit:4;stroke-opacity:1;stroke-dasharray:none"
       d="m 291.90625,220.64447 c -3.09312,24.68561 -2.68849,45.63921 -5.40625,58.79447 3.19747,18.11059 2.24064,62.59339 0.3125,98.8112 2.73953,-18.38252 4.98145,-36.99805 5.65625,-73.98927 15.79932,17.59096 19.87865,61.77359 22.03125,98.54855 0.23539,-32.24185 -1.70146,-83.27475 -21.90625,-106.06782 0.22949,-19.72017 0.0556,-44.27992 -0.6875,-76.09713 z"
       id="path3065"
       inkscape:connector-curvature="0" />
    <path
       style="fill:#000000;stroke:#000000;stroke-width:0.1;stroke-linecap:round;stroke-linejoin:round;stroke-miterlimit:4;stroke-opacity:1;stroke-dasharray:none"
       d="m 154.26866,161.46448 c -19.17711,5.76659 -34.28282,3.43005 -47.84781,-11.29199 55.95474,11.28717 74.88353,-36.77273 131.46315,-29.9996 -60.75642,3.79172 -69.00759,39.45422 -115.75994,37.41523 8.70206,6.38522 19.44835,5.44328 32.1446,3.87636 z"
       id="path3067"
       inkscape:connector-curvature="0"
       sodipodi:nodetypes="ccccc" />
    <path
       style="fill:#000000;stroke:#000000;stroke-width:0.1;stroke-linecap:round;stroke-linejoin:round;stroke-miterlimit:4;stroke-opacity:1;stroke-dasharray:none"
       d="m 141.72664,139.04904 c -24.48687,-4.50092 -31.99959,-19.79081 -37.38911,-38.59499 28.67023,46.63742 44.44321,6.81902 100.30187,13.82004 -46.32366,-0.35796 -67.12172,27.00879 -90.46679,4.21343 7.65873,11.82649 17.6861,16.67645 27.55403,20.56152 z"
       id="path3069"
       inkscape:connector-curvature="0"
       sodipodi:nodetypes="ccccc" />
    <path
       style="fill:#000000;stroke:#000000;stroke-width:0.10200712;stroke-linecap:round;stroke-linejoin:round;stroke-miterlimit:4;stroke-opacity:1;stroke-dasharray:none"
       d="M 112.86705,198.09852 C 99.701467,182.31226 85.906313,172.67614 66.379289,174.16543 c 51.512601,-22.20628 64.243301,47.9831 109.620401,22.94104 -31.27276,26.99912 -59.94454,-18.48337 -84.66508,-21.82499 7.112241,4.9374 13.63079,9.53982 21.53244,22.81704 z"
       id="path3071"
       inkscape:connector-curvature="0"
       sodipodi:nodetypes="ccccc" />
    <path
       style="fill:#000000;stroke:#000000;stroke-width:0.1;stroke-linecap:round;stroke-linejoin:round;stroke-miterlimit:4;stroke-opacity:1;stroke-dasharray:none"
       d="m 288.19844,187.58773 c 0.32009,51.63605 -19.36653,44.91691 -15.19078,71.12266 0.74584,-30.73022 21.44759,-18.78364 15.19078,-71.12266 z"
       id="path3073"
       inkscape:connector-curvature="0"
       sodipodi:nodetypes="ccc" />
    <path
       style="fill:#000000;stroke:#000000;stroke-width:0.1;stroke-linecap:round;stroke-linejoin:round;stroke-miterlimit:4;stroke-opacity:1;stroke-dasharray:none"
       d="m 267.63692,178.23559 c -5.53881,22.36494 -7.33329,41.93578 -6.57295,49.31834 0.98292,-9.02031 1.7718,-18.56027 4.21343,-25.51241 -0.96634,-1.78779 1.28224,-14.20202 2.35952,-23.80593 z"
       id="path3075"
       inkscape:connector-curvature="0"
       sodipodi:nodetypes="cccc" />
    <path
       style="fill:#000000;stroke:#000000;stroke-width:0.1;stroke-linecap:round;stroke-linejoin:round;stroke-miterlimit:4;stroke-opacity:1;stroke-dasharray:none"
       d="m 228.18955,178.85237 c 5.29959,21.65546 6.81728,40.73841 5.92075,47.99951 -0.85878,-8.78864 -1.51084,-18.09451 -3.89402,-24.79477 1.01661,-1.79243 -1.08094,-13.84883 -2.02673,-23.20474 z"
       id="path3077"
       inkscape:connector-curvature="0"
       sodipodi:nodetypes="cccc" />
    <path
       style="fill:#000000;stroke:#000000;stroke-width:0.1;stroke-linecap:round;stroke-linejoin:round;stroke-miterlimit:4;stroke-opacity:1;stroke-dasharray:none"
       d="m 203.31087,185.46923 c -2.74026,19.54755 -1.994,38.63463 6.99586,44.57097 -7.60104,-11.45445 -6.39581,-26.92295 -6.99586,-44.57097 z"
       id="path3079"
       inkscape:connector-curvature="0"
       sodipodi:nodetypes="ccc" />
    <path
       style="fill:#000000;stroke:#000000;stroke-width:0.09705058;stroke-linecap:round;stroke-linejoin:round;stroke-miterlimit:4;stroke-opacity:1;stroke-dasharray:none"
       d="m 292.09656,284.81294 c 97.94542,15.32057 73.43597,72.81646 96.15977,132.33326 -12.93212,-41.9639 5.16819,-132.20713 -96.15977,-132.33326 z"
       id="path3081"
       inkscape:connector-curvature="0"
       sodipodi:nodetypes="ccc" />
    <path
       style="fill:#000000;stroke:#000000;stroke-width:0.09968074;stroke-linecap:round;stroke-linejoin:round;stroke-miterlimit:4;stroke-opacity:1;stroke-dasharray:none"
       d="m 72.30744,267.50324 c 20.666713,-81.94718 85.07363,-11.0955 122.68497,-66.98506 -39.27292,41.41108 -114.813683,-19.9974 -122.68497,66.98506 z"
       id="path3083"
       inkscape:connector-curvature="0"
       sodipodi:nodetypes="ccc" />
    <path
       style="fill:#000000;stroke:#000000;stroke-width:0.1;stroke-linecap:round;stroke-linejoin:round;stroke-miterlimit:4;stroke-opacity:1;stroke-dasharray:none"
       d="m 219.19256,289.08951 c 2.97355,30.52913 49.16952,31.54026 52.16297,-1.19173 -7.09932,29.10376 -44.24461,29.31506 -52.16297,1.19173 z"
       id="path3085"
       inkscape:connector-curvature="0"
       sodipodi:nodetypes="ccc" />
    <path
       style="fill:#000000;stroke:#000000;stroke-width:0.1;stroke-linecap:round;stroke-linejoin:round;stroke-miterlimit:4;stroke-opacity:1;stroke-dasharray:none"
       d="m 217.96875,276.2447 c 1.46673,-13.83074 2.18425,-27.38121 -5.72034,-40.87659 6.27973,18.42765 4.93627,33.17302 5.72034,40.87659 z"
       id="path3087"
       inkscape:connector-curvature="0"
       sodipodi:nodetypes="ccc" />
    <path
       style="fill:#000000;stroke:#000000;stroke-width:0.1;stroke-linecap:round;stroke-linejoin:round;stroke-miterlimit:4;stroke-opacity:1;stroke-dasharray:none"
       d="m 171.40625,229.0625 c -37.76398,35.62066 -107.694839,-4.55659 -81.75,106.4375 -1.708226,-72.5077 39.96833,-45.61378 52.09375,-58.09375 -18.51424,6.08829 -40.92109,-6.71273 -53.28125,24.03125 3.650452,-67.94983 47.86616,-33.34998 82.9375,-72.375 z m -82.0625,102.96875 c 0.134182,1.12271 0.233345,2.19668 0.28125,3.21875 -0.102853,-1.09441 -0.190464,-2.15528 -0.28125,-3.21875 z"
       id="path3089"
       inkscape:connector-curvature="0"
       sodipodi:nodetypes="cccccccc" />
    <path
       style="fill:#000000;stroke:#000000;stroke-width:0.1;stroke-linecap:round;stroke-linejoin:round;stroke-miterlimit:4;stroke-opacity:1;stroke-dasharray:none"
       d="m 200.21186,222.54426 c 1.72395,39.39677 -9.71648,70.02248 -18.5911,126.31728 5.38572,-66.78742 10.28361,-53.20639 18.5911,-126.31728 z"
       id="path3091"
       inkscape:connector-curvature="0"
       sodipodi:nodetypes="ccc" />
    <path
       style="fill:#000000;stroke:#000000;stroke-width:0.04929576;stroke-linecap:round;stroke-linejoin:round;stroke-miterlimit:4;stroke-opacity:1;stroke-dasharray:none"
       d="m 229.94607,303.44249 c 9.58071,7.80329 27.17148,4.74011 30.96539,-0.48784 -11.44441,4.97165 -18.97484,4.6479 -30.96539,0.48784 z"
       id="path3093"
       inkscape:connector-curvature="0"
       sodipodi:nodetypes="ccc" />
    <path
       style="fill:#000000;stroke:#000000;stroke-width:0.1;stroke-linecap:round;stroke-linejoin:round;stroke-miterlimit:4;stroke-opacity:1;stroke-dasharray:none"
       d="m 183.76589,286.49364 c -6.96052,39.20009 -37.07201,31.79803 -31.46186,65.30721 -8.76192,-37.62349 14.61142,-23.83192 31.46186,-65.30721 z"
       id="path3095"
       inkscape:connector-curvature="0"
       sodipodi:nodetypes="ccc" />
    <path
       style="fill:#000000;stroke:#000000;stroke-width:0.1;stroke-linecap:round;stroke-linejoin:round;stroke-miterlimit:4;stroke-opacity:1;stroke-dasharray:none"
       d="m 184.71875,246.9375 c -0.4339,1.87352 -0.93946,3.67912 -1.5,5.4375 0.73264,-1.79919 1.24897,-3.60581 1.5,-5.4375 z m -1.53125,5.5 C 168.20372,288.96282 61.234598,319.80276 151.125,384.78125 l 0.6875,0.625 c -9.20944,-12.59608 -24.33485,-34.29671 -8.09375,-54.09375 -10.39353,7.8611 -10.6299,19.42896 -8.15625,33.6875 -38.248988,-57.22179 30.99891,-60.58626 47.625,-112.5625 z"
       id="path3097"
       inkscape:connector-curvature="0" />
  </g>
  <use
     id="use4035"
     xlink:href="#g3041"
     x="0"
     y="0"
     width="450"
     height="450"
     transform="translate(181.0611,-436.16109)" />
  <use
     id="use4037"
     xlink:href="#g3041"
     x="0"
     y="0"
     width="450"
     height="450"
     transform="translate(994.59023,-252.44038)" />
  <use
     id="use4039"
     xlink:href="#g3041"
     x="0"
     y="0"
     width="450"
     height="450"
     transform="translate(635.39048,-479.76874)" />
  <use
     id="use4041"
     xlink:href="#g3041"
     x="0"
     y="0"
     width="450"
     height="450"
     transform="translate(815.16464,112.31698)" />
  <use
     id="use4043"
     xlink:href="#g3041"
     x="0"
     y="0"
     width="450"
     height="450"
     transform="translate(129.24121,779.95201)" />
  <use
     id="use4045"
     xlink:href="#g3041"
     x="0"
     y="0"
     width="450"
     height="450"
     transform="translate(149.16563,415.14637)" />
  <use
     id="use4047"
     xlink:href="#g3041"
     x="0"
     y="0"
     width="450"
     height="450"
     transform="translate(1127.9419,386.43203)" />
  <use
     id="use4049"
     xlink:href="#g3041"
     x="0"
     y="0"
     width="450"
     height="450"
     transform="translate(1101.5207,865.45319)" />
  <use
     id="use4051"
     xlink:href="#g3041"
     x="0"
     y="0"
     width="450"
     height="450"
     transform="translate(468.29209,834.4093)" />
  <use
     id="use4053"
     xlink:href="#g3041"
     x="0"
     y="0"
     width="450"
     height="450"
     transform="translate(421.78013,314.42052)" />
  <use
     id="use4055"
     xlink:href="#g3041"
     x="0"
     y="0"
     width="450"
     height="450"
     transform="translate(719.08548,591.10456)" />
  <use
     id="use4057"
     xlink:href="#g3041"
     x="0"
     y="0"
     width="450"
     height="450"
     transform="translate(1559.9405,-226.29951)" />
  <use
     id="use4059"
     xlink:href="#g3041"
     x="0"
     y="0"
     width="450"
     height="450"
     transform="translate(1275.1107,1.9483358)" />
  <use
     id="use4061"
     xlink:href="#g3041"
     x="0"
     y="0"
     width="450"
     height="450"
     transform="translate(1943.6491,18.093566)" />
  <use
     id="use4063"
     xlink:href="#g3041"
     x="0"
     y="0"
     width="450"
     height="450"
     transform="translate(1275.4585,-563.7465)" />
  <use
     id="use4065"
     xlink:href="#g3041"
     x="0"
     y="0"
     width="450"
     height="450"
     transform="translate(1506.5914,643.64856)" />
  <use
     id="use4067"
     xlink:href="#g3041"
     x="0"
     y="0"
     width="450"
     height="450"
     transform="translate(1641.6169,207.91929)" />
  <use
     id="use4069"
     xlink:href="#g3041"
     x="0"
     y="0"
     width="450"
     height="450"
     transform="translate(1903.31,717.83746)" />
  <g
     inkscape:groupmode="layer"
     id="layer1"
     inkscape:label="hide-circles"
     style="display:inline">
    <path
       sodipodi:type="arc"
       style="fill:none;stroke:#ff0000;stroke-width:6;stroke-linecap:round;stroke-miterlimit:4;stroke-opacity:1;stroke-dasharray:none;stroke-dashoffset:0;display:inline"
       id="path4845"
       sodipodi:cx="-1636.8324"
       sodipodi:cy="1095.9017"
       sodipodi:rx="288.53552"
       sodipodi:ry="288.53552"
       d="m -1348.2969,1095.9017 a 288.53552,288.53552 0 1 1 -577.071,0 288.53552,288.53552 0 1 1 577.071,0 z"
       transform="matrix(0.81500754,0,0,0.81500754,1571.6402,152.96222)" />
    <path
       transform="matrix(0.81500754,0,0,0.81500754,2800.2967,-23.761497)"
       d="m -1348.2969,1095.9017 a 288.53552,288.53552 0 1 1 -577.071,0 288.53552,288.53552 0 1 1 577.071,0 z"
       sodipodi:ry="288.53552"
       sodipodi:rx="288.53552"
       sodipodi:cy="1095.9017"
       sodipodi:cx="-1636.8324"
       id="path4843"
       style="fill:none;stroke:#ff0000;stroke-width:6;stroke-linecap:round;stroke-miterlimit:4;stroke-opacity:1;stroke-dasharray:none;stroke-dashoffset:0;display:inline"
       sodipodi:type="arc" />
  </g>
  <g
     inkscape:groupmode="layer"
     id="layer2"
     inkscape:label="shown-circles"
     style="display:inline">
    <path
       sodipodi:type="arc"
       style="fill:none;stroke:#ff0000;stroke-width:6;stroke-linecap:round;stroke-miterlimit:4;stroke-opacity:1;stroke-dasharray:none;stroke-dashoffset:0;display:inline"
       id="path4847"
       sodipodi:cx="-1636.8324"
       sodipodi:cy="1095.9017"
       sodipodi:rx="288.53552"
       sodipodi:ry="288.53552"
       d="m -1348.2969,1095.9017 a 288.53552,288.53552 0 1 1 -577.071,0 288.53552,288.53552 0 1 1 577.071,0 z"
       transform="matrix(0.81500754,0,0,0.81500754,4226.8576,222.11815)" />
  </g>
  <g
     inkscape:groupmode="layer"
     id="layer3"
     inkscape:label="left-horse"
     style="display:inline">
    <use
       id="use4033"
       xlink:href="#g3041"
       x="0"
       y="0"
       width="450"
       height="450"
       transform="translate(-413.49183,289.0407)" />
  </g>
  <g
     inkscape:groupmode="layer"
     id="layer4"
     inkscape:label="right-horse"
     style="display:inline">
    <use
       id="use4071"
       xlink:href="#g3041"
       x="0"
       y="0"
       width="450"
       height="450"
       transform="translate(2241.7256,358.19663)" />
  </g>
</svg>
